<?xml version="1.0" encoding="UTF-8" standalone="no"?>
<!DOCTYPE svg PUBLIC "-//W3C//DTD SVG 1.1//EN"
 "http://www.w3.org/Graphics/SVG/1.1/DTD/svg11.dtd">
<!-- Generated by graphviz version 2.40.1 (20161225.0304)
 -->
<!-- Pages: 1 -->
<svg width="682pt" height="552pt"
 viewBox="0.00 0.00 682.00 551.78" xmlns="http://www.w3.org/2000/svg" xmlns:xlink="http://www.w3.org/1999/xlink">
<g id="graph0" class="graph" transform="scale(1 1) rotate(0) translate(4 547.7818)">
<polygon fill="#ffffff" stroke="transparent" points="-4,4 -4,-547.7818 678.0018,-547.7818 678.0018,4 -4,4"/>
<!-- 9999 -->
<g id="node1" class="node">
<title>9999</title>
<ellipse fill="none" stroke="#000000" cx="155.0018" cy="-535.7818" rx="12" ry="8"/>
<text text-anchor="middle" x="155.0018" y="-533.2818" font-family="Times,serif" font-size="10.00" fill="#000000">root</text>
</g>
<!-- &#45;32 -->
<g id="node2" class="node">
<title>&#45;32</title>
<ellipse fill="none" stroke="#000000" cx="88.9998" cy="-470.0018" rx="7" ry="7"/>
</g>
<!-- 9999&#45;&gt;&#45;32 -->
<g id="edge1" class="edge">
<title>9999&#45;&gt;&#45;32</title>
<path fill="none" stroke="#000000" d="M148.4318,-529.2318C137.4218,-518.2618 115.0818,-495.9918 101.1418,-482.1018"/>
<polygon fill="#000000" stroke="#000000" points="103.6122,-479.6225 94.0588,-475.0418 98.6705,-484.5803 103.6122,-479.6225"/>
<text text-anchor="middle" x="132.0018" y="-498.8018" font-family="Times,serif" font-size="14.00" fill="#000000">0</text>
</g>
<!-- &#45;25 -->
<g id="node3" class="node">
<title>&#45;25</title>
<ellipse fill="none" stroke="#000000" cx="218.0018" cy="-470.0018" rx="7" ry="7"/>
</g>
<!-- 9999&#45;&gt;&#45;25 -->
<g id="edge2" class="edge">
<title>9999&#45;&gt;&#45;25</title>
<path fill="none" stroke="#000000" d="M161.7418,-528.7418C172.2618,-517.7618 192.7118,-496.4018 205.8518,-482.6918"/>
<polygon fill="#000000" stroke="#000000" points="208.5379,-484.9471 212.9218,-475.3018 203.4798,-480.1081 208.5379,-484.9471"/>
<text text-anchor="middle" x="198.0018" y="-498.8018" font-family="Times,serif" font-size="14.00" fill="#000000">1</text>
</g>
<!-- &#45;33 -->
<g id="node4" class="node">
<title>&#45;33</title>
<ellipse fill="none" stroke="#000000" cx="41.9998" cy="-405.0018" rx="7" ry="7"/>
</g>
<!-- &#45;32&#45;&gt;&#45;33 -->
<g id="edge3" class="edge">
<title>&#45;32&#45;&gt;&#45;33</title>
<path fill="none" stroke="#000000" d="M84.6628,-464.0018C77.3508,-453.8918 62.3808,-433.1918 52.2658,-419.2018"/>
<polygon fill="#000000" stroke="#000000" points="54.8876,-416.8544 46.1918,-410.8018 49.2152,-420.9561 54.8876,-416.8544"/>
<text text-anchor="middle" x="73.9998" y="-433.8018" font-family="Times,serif" font-size="14.00" fill="#000000">0</text>
</g>
<!-- &#45;64 -->
<g id="node5" class="node">
<title>&#45;64</title>
<ellipse fill="none" stroke="#000000" cx="88.9998" cy="-405.0018" rx="7" ry="7"/>
</g>
<!-- &#45;32&#45;&gt;&#45;64 -->
<g id="edge4" class="edge">
<title>&#45;32&#45;&gt;&#45;64</title>
<path fill="none" stroke="#000000" d="M88.9998,-462.8018C88.9998,-453.0818 88.9998,-435.4818 88.9998,-422.2418"/>
<polygon fill="#000000" stroke="#000000" points="92.4999,-422.0418 88.9998,-412.0418 85.4999,-422.0418 92.4999,-422.0418"/>
<text text-anchor="middle" x="92.9998" y="-433.8018" font-family="Times,serif" font-size="14.00" fill="#000000">1</text>
</g>
<!-- &#45;69 -->
<g id="node6" class="node">
<title>&#45;69</title>
<ellipse fill="none" stroke="#000000" cx="218.0018" cy="-405.0018" rx="7" ry="7"/>
</g>
<!-- &#45;25&#45;&gt;&#45;69 -->
<g id="edge5" class="edge">
<title>&#45;25&#45;&gt;&#45;69</title>
<path fill="none" stroke="#000000" d="M218.0018,-462.8018C218.0018,-453.0818 218.0018,-435.4818 218.0018,-422.2418"/>
<polygon fill="#000000" stroke="#000000" points="221.5019,-422.0418 218.0018,-412.0418 214.5019,-422.0418 221.5019,-422.0418"/>
<text text-anchor="middle" x="222.0018" y="-433.8018" font-family="Times,serif" font-size="14.00" fill="#000000">0</text>
</g>
<!-- &#45;26 -->
<g id="node7" class="node">
<title>&#45;26</title>
<ellipse fill="none" stroke="#000000" cx="265.0018" cy="-405.0018" rx="7" ry="7"/>
</g>
<!-- &#45;25&#45;&gt;&#45;26 -->
<g id="edge6" class="edge">
<title>&#45;25&#45;&gt;&#45;26</title>
<path fill="none" stroke="#000000" d="M222.3418,-464.0018C229.6518,-453.8918 244.6218,-433.1918 254.7318,-419.2018"/>
<polygon fill="#000000" stroke="#000000" points="257.7837,-420.9547 260.8118,-410.8018 252.1132,-416.8503 257.7837,-420.9547"/>
<text text-anchor="middle" x="250.0018" y="-433.8018" font-family="Times,serif" font-size="14.00" fill="#000000">1</text>
</g>
<!-- 32 -->
<g id="node8" class="node">
<title>32</title>
<ellipse fill="none" stroke="#000000" cx="8" cy="-339.2218" rx="8" ry="8"/>
<text text-anchor="middle" x="8" y="-336.7218" font-family="Times,serif" font-size="10.00" fill="#000000">32</text>
</g>
<!-- &#45;33&#45;&gt;32 -->
<g id="edge7" class="edge">
<title>&#45;33&#45;&gt;32</title>
<path fill="none" stroke="#000000" d="M38.6158,-398.4518C33.4258,-388.4118 23.3488,-368.9218 16.1738,-355.0418"/>
<polygon fill="#000000" stroke="#000000" points="19.275,-353.419 11.5748,-346.1418 13.0562,-356.6326 19.275,-353.419"/>
<text text-anchor="middle" x="33.9998" y="-368.8018" font-family="Times,serif" font-size="14.00" fill="#000000">0</text>
</g>
<!-- 79 -->
<g id="node9" class="node">
<title>79</title>
<ellipse fill="none" stroke="#000000" cx="41.9998" cy="-339.2218" rx="8" ry="8"/>
<text text-anchor="middle" x="41.9998" y="-336.7218" font-family="Times,serif" font-size="10.00" fill="#000000">79</text>
</g>
<!-- &#45;33&#45;&gt;79 -->
<g id="edge8" class="edge">
<title>&#45;33&#45;&gt;79</title>
<path fill="none" stroke="#000000" d="M41.9998,-397.9618C41.9998,-388.3318 41.9998,-370.7118 41.9998,-357.2718"/>
<polygon fill="#000000" stroke="#000000" points="45.4999,-357.2318 41.9998,-347.2318 38.4999,-357.2318 45.4999,-357.2318"/>
<text text-anchor="middle" x="45.9998" y="-368.8018" font-family="Times,serif" font-size="14.00" fill="#000000">1</text>
</g>
<!-- &#45;65 -->
<g id="node10" class="node">
<title>&#45;65</title>
<ellipse fill="none" stroke="#000000" cx="74.9998" cy="-339.2218" rx="7" ry="7"/>
</g>
<!-- &#45;64&#45;&gt;&#45;65 -->
<g id="edge9" class="edge">
<title>&#45;64&#45;&gt;&#45;65</title>
<path fill="none" stroke="#000000" d="M85.4728,-398.6418C82.9238,-393.7118 79.6498,-386.6318 77.9998,-380.0018 76.1098,-372.4118 75.2908,-363.7918 74.9718,-356.4418"/>
<polygon fill="#000000" stroke="#000000" points="78.4683,-356.2009 74.7988,-346.2618 71.4693,-356.3199 78.4683,-356.2009"/>
<text text-anchor="middle" x="81.9998" y="-368.8018" font-family="Times,serif" font-size="14.00" fill="#000000">0</text>
</g>
<!-- &#45;80 -->
<g id="node11" class="node">
<title>&#45;80</title>
<ellipse fill="none" stroke="#000000" cx="108.0018" cy="-339.2218" rx="7" ry="7"/>
</g>
<!-- &#45;64&#45;&gt;&#45;80 -->
<g id="edge10" class="edge">
<title>&#45;64&#45;&gt;&#45;80</title>
<path fill="none" stroke="#000000" d="M91.0338,-397.9618C93.9048,-388.0218 99.2368,-369.5618 103.1618,-355.9818"/>
<polygon fill="#000000" stroke="#000000" points="106.6262,-356.6005 106.0418,-346.0218 99.9017,-354.656 106.6262,-356.6005"/>
<text text-anchor="middle" x="105.0018" y="-368.8018" font-family="Times,serif" font-size="14.00" fill="#000000">1</text>
</g>
<!-- &#45;96 -->
<g id="node12" class="node">
<title>&#45;96</title>
<ellipse fill="none" stroke="#000000" cx="210.0018" cy="-339.2218" rx="7" ry="7"/>
</g>
<!-- &#45;69&#45;&gt;&#45;96 -->
<g id="edge11" class="edge">
<title>&#45;69&#45;&gt;&#45;96</title>
<path fill="none" stroke="#000000" d="M215.9618,-398.0618C214.6018,-393.0818 212.8818,-386.1918 212.0018,-380.0018 210.9018,-372.3618 210.3818,-363.8418 210.1418,-356.5718"/>
<polygon fill="#000000" stroke="#000000" points="213.6395,-356.4141 209.9518,-346.4818 206.6408,-356.546 213.6395,-356.4141"/>
<text text-anchor="middle" x="216.0018" y="-368.8018" font-family="Times,serif" font-size="14.00" fill="#000000">0</text>
</g>
<!-- &#45;70 -->
<g id="node13" class="node">
<title>&#45;70</title>
<ellipse fill="none" stroke="#000000" cx="243.0018" cy="-339.2218" rx="7" ry="7"/>
</g>
<!-- &#45;69&#45;&gt;&#45;70 -->
<g id="edge12" class="edge">
<title>&#45;69&#45;&gt;&#45;70</title>
<path fill="none" stroke="#000000" d="M220.4918,-398.4518C224.2318,-388.6118 231.4318,-369.6718 236.6818,-355.8518"/>
<polygon fill="#000000" stroke="#000000" points="240.0911,-356.7329 240.3718,-346.1418 233.5477,-354.2462 240.0911,-356.7329"/>
<text text-anchor="middle" x="237.0018" y="-368.8018" font-family="Times,serif" font-size="14.00" fill="#000000">1</text>
</g>
<!-- &#45;27 -->
<g id="node14" class="node">
<title>&#45;27</title>
<ellipse fill="none" stroke="#000000" cx="299.0018" cy="-339.2218" rx="7" ry="7"/>
</g>
<!-- &#45;26&#45;&gt;&#45;27 -->
<g id="edge13" class="edge">
<title>&#45;26&#45;&gt;&#45;27</title>
<path fill="none" stroke="#000000" d="M268.3818,-398.4518C273.5818,-388.4118 283.6618,-368.8918 290.8418,-355.0118"/>
<polygon fill="#000000" stroke="#000000" points="294.1506,-356.2326 295.6318,-345.7418 287.9317,-353.0192 294.1506,-356.2326"/>
<text text-anchor="middle" x="290.0018" y="-368.8018" font-family="Times,serif" font-size="14.00" fill="#000000">0</text>
</g>
<!-- 65 -->
<g id="node15" class="node">
<title>65</title>
<ellipse fill="none" stroke="#000000" cx="39.9998" cy="-272.6718" rx="8" ry="8"/>
<text text-anchor="middle" x="39.9998" y="-270.1718" font-family="Times,serif" font-size="10.00" fill="#000000">65</text>
</g>
<!-- &#45;65&#45;&gt;65 -->
<g id="edge14" class="edge">
<title>&#45;65&#45;&gt;65</title>
<path fill="none" stroke="#000000" d="M71.5158,-332.6018C66.1728,-322.4418 55.7998,-302.7118 48.4148,-288.6718"/>
<polygon fill="#000000" stroke="#000000" points="51.4301,-286.8857 43.6798,-279.6618 45.2336,-290.1421 51.4301,-286.8857"/>
<text text-anchor="middle" x="64.9998" y="-302.2518" font-family="Times,serif" font-size="14.00" fill="#000000">0</text>
</g>
<!-- 72 -->
<g id="node16" class="node">
<title>72</title>
<ellipse fill="none" stroke="#000000" cx="73.9998" cy="-272.6718" rx="8" ry="8"/>
<text text-anchor="middle" x="73.9998" y="-270.1718" font-family="Times,serif" font-size="10.00" fill="#000000">72</text>
</g>
<!-- &#45;65&#45;&gt;72 -->
<g id="edge15" class="edge">
<title>&#45;65&#45;&gt;72</title>
<path fill="none" stroke="#000000" d="M74.8928,-332.1018C74.7468,-322.3518 74.4788,-304.5218 74.2748,-290.9318"/>
<polygon fill="#000000" stroke="#000000" points="77.7721,-290.7179 74.1218,-280.7718 70.7729,-290.8234 77.7721,-290.7179"/>
<text text-anchor="middle" x="78.9998" y="-302.2518" font-family="Times,serif" font-size="14.00" fill="#000000">1</text>
</g>
<!-- 73 -->
<g id="node17" class="node">
<title>73</title>
<ellipse fill="none" stroke="#000000" cx="108.0018" cy="-272.6718" rx="8" ry="8"/>
<text text-anchor="middle" x="108.0018" y="-270.1718" font-family="Times,serif" font-size="10.00" fill="#000000">73</text>
</g>
<!-- &#45;80&#45;&gt;73 -->
<g id="edge16" class="edge">
<title>&#45;80&#45;&gt;73</title>
<path fill="none" stroke="#000000" d="M108.0018,-332.1018C108.0018,-322.3518 108.0018,-304.5218 108.0018,-290.9318"/>
<polygon fill="#000000" stroke="#000000" points="111.5019,-290.7718 108.0018,-280.7718 104.5019,-290.7718 111.5019,-290.7718"/>
<text text-anchor="middle" x="112.0018" y="-302.2518" font-family="Times,serif" font-size="14.00" fill="#000000">0</text>
</g>
<!-- 78 -->
<g id="node18" class="node">
<title>78</title>
<ellipse fill="none" stroke="#000000" cx="142.0018" cy="-272.6718" rx="8" ry="8"/>
<text text-anchor="middle" x="142.0018" y="-270.1718" font-family="Times,serif" font-size="10.00" fill="#000000">78</text>
</g>
<!-- &#45;80&#45;&gt;78 -->
<g id="edge17" class="edge">
<title>&#45;80&#45;&gt;78</title>
<path fill="none" stroke="#000000" d="M111.3818,-332.6018C116.5718,-322.4418 126.6518,-302.7118 133.8218,-288.6718"/>
<polygon fill="#000000" stroke="#000000" points="136.9919,-290.1597 138.4218,-279.6618 130.7574,-286.9767 136.9919,-290.1597"/>
<text text-anchor="middle" x="133.0018" y="-302.2518" font-family="Times,serif" font-size="14.00" fill="#000000">1</text>
</g>
<!-- 83 -->
<g id="node19" class="node">
<title>83</title>
<ellipse fill="none" stroke="#000000" cx="176.0018" cy="-272.6718" rx="8" ry="8"/>
<text text-anchor="middle" x="176.0018" y="-270.1718" font-family="Times,serif" font-size="10.00" fill="#000000">83</text>
</g>
<!-- &#45;96&#45;&gt;83 -->
<g id="edge18" class="edge">
<title>&#45;96&#45;&gt;83</title>
<path fill="none" stroke="#000000" d="M206.6118,-332.6018C201.4218,-322.4418 191.3518,-302.7118 184.1718,-288.6718"/>
<polygon fill="#000000" stroke="#000000" points="187.2362,-286.9767 179.5718,-279.6618 181.0017,-290.1597 187.2362,-286.9767"/>
<text text-anchor="middle" x="201.0018" y="-302.2518" font-family="Times,serif" font-size="14.00" fill="#000000">0</text>
</g>
<!-- 84 -->
<g id="node20" class="node">
<title>84</title>
<ellipse fill="none" stroke="#000000" cx="210.0018" cy="-272.6718" rx="8" ry="8"/>
<text text-anchor="middle" x="210.0018" y="-270.1718" font-family="Times,serif" font-size="10.00" fill="#000000">84</text>
</g>
<!-- &#45;96&#45;&gt;84 -->
<g id="edge19" class="edge">
<title>&#45;96&#45;&gt;84</title>
<path fill="none" stroke="#000000" d="M210.0018,-332.1018C210.0018,-322.3518 210.0018,-304.5218 210.0018,-290.9318"/>
<polygon fill="#000000" stroke="#000000" points="213.5019,-290.7718 210.0018,-280.7718 206.5019,-290.7718 213.5019,-290.7718"/>
<text text-anchor="middle" x="214.0018" y="-302.2518" font-family="Times,serif" font-size="14.00" fill="#000000">1</text>
</g>
<!-- &#45;71 -->
<g id="node21" class="node">
<title>&#45;71</title>
<ellipse fill="none" stroke="#000000" cx="243.0018" cy="-272.6718" rx="7" ry="7"/>
</g>
<!-- &#45;70&#45;&gt;&#45;71 -->
<g id="edge20" class="edge">
<title>&#45;70&#45;&gt;&#45;71</title>
<path fill="none" stroke="#000000" d="M243.0018,-332.1018C243.0018,-322.1518 243.0018,-303.7518 243.0018,-290.0518"/>
<polygon fill="#000000" stroke="#000000" points="246.5019,-289.9418 243.0018,-279.9418 239.5019,-289.9418 246.5019,-289.9418"/>
<text text-anchor="middle" x="247.0018" y="-302.2518" font-family="Times,serif" font-size="14.00" fill="#000000">0</text>
</g>
<!-- &#45;77 -->
<g id="node22" class="node">
<title>&#45;77</title>
<ellipse fill="none" stroke="#000000" cx="276.0018" cy="-272.6718" rx="7" ry="7"/>
</g>
<!-- &#45;70&#45;&gt;&#45;77 -->
<g id="edge21" class="edge">
<title>&#45;70&#45;&gt;&#45;77</title>
<path fill="none" stroke="#000000" d="M246.2818,-332.6018C251.3718,-322.3318 261.3118,-302.3018 268.2818,-288.2318"/>
<polygon fill="#000000" stroke="#000000" points="271.4183,-289.7849 272.7318,-279.2718 265.1489,-286.6712 271.4183,-289.7849"/>
<text text-anchor="middle" x="267.0018" y="-302.2518" font-family="Times,serif" font-size="14.00" fill="#000000">1</text>
</g>
<!-- &#45;28 -->
<g id="node23" class="node">
<title>&#45;28</title>
<ellipse fill="none" stroke="#000000" cx="343.0018" cy="-272.6718" rx="7" ry="7"/>
</g>
<!-- &#45;27&#45;&gt;&#45;28 -->
<g id="edge22" class="edge">
<title>&#45;27&#45;&gt;&#45;28</title>
<path fill="none" stroke="#000000" d="M303.0618,-333.0818C309.9018,-322.7318 323.9218,-301.5318 333.3918,-287.2018"/>
<polygon fill="#000000" stroke="#000000" points="336.4811,-288.875 339.0718,-278.6018 330.6401,-285.0172 336.4811,-288.875"/>
<text text-anchor="middle" x="329.0018" y="-302.2518" font-family="Times,serif" font-size="14.00" fill="#000000">0</text>
</g>
<!-- 67 -->
<g id="node24" class="node">
<title>67</title>
<ellipse fill="none" stroke="#000000" cx="208.0018" cy="-206.1118" rx="8" ry="8"/>
<text text-anchor="middle" x="208.0018" y="-203.6118" font-family="Times,serif" font-size="10.00" fill="#000000">67</text>
</g>
<!-- &#45;71&#45;&gt;67 -->
<g id="edge23" class="edge">
<title>&#45;71&#45;&gt;67</title>
<path fill="none" stroke="#000000" d="M239.5118,-266.0418C234.1718,-255.8818 223.8018,-236.1618 216.4118,-222.1118"/>
<polygon fill="#000000" stroke="#000000" points="219.4322,-220.3355 211.6818,-213.1118 213.2359,-223.5921 219.4322,-220.3355"/>
<text text-anchor="middle" x="233.0018" y="-235.6918" font-family="Times,serif" font-size="14.00" fill="#000000">0</text>
</g>
<!-- 68 -->
<g id="node25" class="node">
<title>68</title>
<ellipse fill="none" stroke="#000000" cx="242.0018" cy="-206.1118" rx="8" ry="8"/>
<text text-anchor="middle" x="242.0018" y="-203.6118" font-family="Times,serif" font-size="10.00" fill="#000000">68</text>
</g>
<!-- &#45;71&#45;&gt;68 -->
<g id="edge24" class="edge">
<title>&#45;71&#45;&gt;68</title>
<path fill="none" stroke="#000000" d="M242.8918,-265.5418C242.7418,-255.8018 242.4818,-237.9718 242.2718,-224.3718"/>
<polygon fill="#000000" stroke="#000000" points="245.7691,-224.159 242.1218,-214.2118 238.7699,-224.2624 245.7691,-224.159"/>
<text text-anchor="middle" x="247.0018" y="-235.6918" font-family="Times,serif" font-size="14.00" fill="#000000">1</text>
</g>
<!-- 71 -->
<g id="node26" class="node">
<title>71</title>
<ellipse fill="none" stroke="#000000" cx="276.0018" cy="-206.1118" rx="8" ry="8"/>
<text text-anchor="middle" x="276.0018" y="-203.6118" font-family="Times,serif" font-size="10.00" fill="#000000">71</text>
</g>
<!-- &#45;77&#45;&gt;71 -->
<g id="edge25" class="edge">
<title>&#45;77&#45;&gt;71</title>
<path fill="none" stroke="#000000" d="M276.0018,-265.5418C276.0018,-255.8018 276.0018,-237.9718 276.0018,-224.3718"/>
<polygon fill="#000000" stroke="#000000" points="279.5019,-224.2118 276.0018,-214.2118 272.5019,-224.2118 279.5019,-224.2118"/>
<text text-anchor="middle" x="280.0018" y="-235.6918" font-family="Times,serif" font-size="14.00" fill="#000000">0</text>
</g>
<!-- 76 -->
<g id="node27" class="node">
<title>76</title>
<ellipse fill="none" stroke="#000000" cx="310.0018" cy="-206.1118" rx="8" ry="8"/>
<text text-anchor="middle" x="310.0018" y="-203.6118" font-family="Times,serif" font-size="10.00" fill="#000000">76</text>
</g>
<!-- &#45;77&#45;&gt;76 -->
<g id="edge26" class="edge">
<title>&#45;77&#45;&gt;76</title>
<path fill="none" stroke="#000000" d="M279.3818,-266.0418C284.5718,-255.8818 294.6518,-236.1618 301.8218,-222.1118"/>
<polygon fill="#000000" stroke="#000000" points="304.9872,-223.6091 306.4218,-213.1118 298.7541,-220.4233 304.9872,-223.6091"/>
<text text-anchor="middle" x="301.0018" y="-235.6918" font-family="Times,serif" font-size="14.00" fill="#000000">1</text>
</g>
<!-- &#45;29 -->
<g id="node28" class="node">
<title>&#45;29</title>
<ellipse fill="none" stroke="#000000" cx="343.0018" cy="-206.1118" rx="7" ry="7"/>
</g>
<!-- &#45;28&#45;&gt;&#45;29 -->
<g id="edge27" class="edge">
<title>&#45;28&#45;&gt;&#45;29</title>
<path fill="none" stroke="#000000" d="M343.0018,-265.5418C343.0018,-255.5918 343.0018,-237.2018 343.0018,-223.5018"/>
<polygon fill="#000000" stroke="#000000" points="346.5019,-223.3818 343.0018,-213.3818 339.5019,-223.3818 346.5019,-223.3818"/>
<text text-anchor="middle" x="347.0018" y="-235.6918" font-family="Times,serif" font-size="14.00" fill="#000000">0</text>
</g>
<!-- &#45;99 -->
<g id="node29" class="node">
<title>&#45;99</title>
<ellipse fill="none" stroke="#000000" cx="479.0018" cy="-206.1118" rx="7" ry="7"/>
</g>
<!-- &#45;28&#45;&gt;&#45;99 -->
<g id="edge28" class="edge">
<title>&#45;28&#45;&gt;&#45;99</title>
<path fill="none" stroke="#000000" d="M349.5618,-269.4618C370.0718,-259.4218 433.3818,-228.4318 463.1818,-213.8518"/>
<polygon fill="#000000" stroke="#000000" points="465.0575,-216.8306 472.5018,-209.2918 461.9811,-210.5428 465.0575,-216.8306"/>
<text text-anchor="middle" x="428.0018" y="-235.6918" font-family="Times,serif" font-size="14.00" fill="#000000">1</text>
</g>
<!-- &#45;30 -->
<g id="node30" class="node">
<title>&#45;30</title>
<ellipse fill="none" stroke="#000000" cx="258.0018" cy="-140.3318" rx="7" ry="7"/>
</g>
<!-- &#45;29&#45;&gt;&#45;30 -->
<g id="edge29" class="edge">
<title>&#45;29&#45;&gt;&#45;30</title>
<path fill="none" stroke="#000000" d="M337.4218,-201.7918C324.2218,-191.5818 290.7318,-165.6618 271.7218,-150.9518"/>
<polygon fill="#000000" stroke="#000000" points="273.762,-148.105 263.7118,-144.7518 269.4773,-153.6405 273.762,-148.105"/>
<text text-anchor="middle" x="313.0018" y="-169.1318" font-family="Times,serif" font-size="14.00" fill="#000000">0</text>
</g>
<!-- &#45;84 -->
<g id="node31" class="node">
<title>&#45;84</title>
<ellipse fill="none" stroke="#000000" cx="343.0018" cy="-140.3318" rx="7" ry="7"/>
</g>
<!-- &#45;29&#45;&gt;&#45;84 -->
<g id="edge30" class="edge">
<title>&#45;29&#45;&gt;&#45;84</title>
<path fill="none" stroke="#000000" d="M343.0018,-199.0718C343.0018,-189.3318 343.0018,-171.4218 343.0018,-157.9218"/>
<polygon fill="#000000" stroke="#000000" points="346.5019,-157.5218 343.0018,-147.5218 339.5019,-157.5218 346.5019,-157.5218"/>
<text text-anchor="middle" x="347.0018" y="-169.1318" font-family="Times,serif" font-size="14.00" fill="#000000">1</text>
</g>
<!-- &#45;100 -->
<g id="node32" class="node">
<title>&#45;100</title>
<ellipse fill="none" stroke="#000000" cx="479.0018" cy="-140.3318" rx="7" ry="7"/>
</g>
<!-- &#45;99&#45;&gt;&#45;100 -->
<g id="edge31" class="edge">
<title>&#45;99&#45;&gt;&#45;100</title>
<path fill="none" stroke="#000000" d="M479.0018,-199.0718C479.0018,-189.3318 479.0018,-171.4218 479.0018,-157.9218"/>
<polygon fill="#000000" stroke="#000000" points="482.5019,-157.5218 479.0018,-147.5218 475.5019,-157.5218 482.5019,-157.5218"/>
<text text-anchor="middle" x="483.0018" y="-169.1318" font-family="Times,serif" font-size="14.00" fill="#000000">0</text>
</g>
<!-- &#45;109 -->
<g id="node33" class="node">
<title>&#45;109</title>
<ellipse fill="none" stroke="#000000" cx="581.0018" cy="-140.3318" rx="7" ry="7"/>
</g>
<!-- &#45;99&#45;&gt;&#45;109 -->
<g id="edge32" class="edge">
<title>&#45;99&#45;&gt;&#45;109</title>
<path fill="none" stroke="#000000" d="M485.0718,-202.1918C500.9118,-191.9818 543.8218,-164.3118 566.5018,-149.6818"/>
<polygon fill="#000000" stroke="#000000" points="568.5725,-152.5112 575.0818,-144.1518 564.7802,-146.6274 568.5725,-152.5112"/>
<text text-anchor="middle" x="547.0018" y="-169.1318" font-family="Times,serif" font-size="14.00" fill="#000000">1</text>
</g>
<!-- 10 -->
<g id="node34" class="node">
<title>10</title>
<ellipse fill="none" stroke="#000000" cx="225.0018" cy="-74.5568" rx="8" ry="8"/>
<text text-anchor="middle" x="225.0018" y="-72.0568" font-family="Times,serif" font-size="10.00" fill="#000000">10</text>
</g>
<!-- &#45;30&#45;&gt;10 -->
<g id="edge33" class="edge">
<title>&#45;30&#45;&gt;10</title>
<path fill="none" stroke="#000000" d="M254.7118,-133.7918C249.7818,-123.9518 240.2918,-105.0318 233.3518,-91.2108"/>
<polygon fill="#000000" stroke="#000000" points="236.2821,-89.246 228.6718,-81.8748 230.0243,-92.383 236.2821,-89.246"/>
<text text-anchor="middle" x="250.0018" y="-104.1318" font-family="Times,serif" font-size="14.00" fill="#000000">0</text>
</g>
<!-- &#45;74 -->
<g id="node35" class="node">
<title>&#45;74</title>
<ellipse fill="none" stroke="#000000" cx="258.0018" cy="-74.5568" rx="7" ry="7"/>
</g>
<!-- &#45;30&#45;&gt;&#45;74 -->
<g id="edge34" class="edge">
<title>&#45;30&#45;&gt;&#45;74</title>
<path fill="none" stroke="#000000" d="M258.0018,-133.2918C258.0018,-123.5518 258.0018,-105.6418 258.0018,-92.1478"/>
<polygon fill="#000000" stroke="#000000" points="261.5019,-91.7448 258.0018,-81.7448 254.5019,-91.7448 261.5019,-91.7448"/>
<text text-anchor="middle" x="262.0018" y="-104.1318" font-family="Times,serif" font-size="14.00" fill="#000000">1</text>
</g>
<!-- &#45;85 -->
<g id="node36" class="node">
<title>&#45;85</title>
<ellipse fill="none" stroke="#000000" cx="326.0018" cy="-74.5568" rx="7" ry="7"/>
</g>
<!-- &#45;84&#45;&gt;&#45;85 -->
<g id="edge35" class="edge">
<title>&#45;84&#45;&gt;&#45;85</title>
<path fill="none" stroke="#000000" d="M338.7618,-134.5018C335.4718,-129.6418 331.1218,-122.3818 329.0018,-115.3318 326.7518,-107.8418 325.8818,-99.2368 325.6218,-91.8708"/>
<polygon fill="#000000" stroke="#000000" points="329.1215,-91.6439 325.6018,-81.6508 322.1215,-91.6577 329.1215,-91.6439"/>
<text text-anchor="middle" x="333.0018" y="-104.1318" font-family="Times,serif" font-size="14.00" fill="#000000">0</text>
</g>
<!-- &#45;91 -->
<g id="node37" class="node">
<title>&#45;91</title>
<ellipse fill="none" stroke="#000000" cx="360.0018" cy="-74.5568" rx="7" ry="7"/>
</g>
<!-- &#45;84&#45;&gt;&#45;91 -->
<g id="edge36" class="edge">
<title>&#45;84&#45;&gt;&#45;91</title>
<path fill="none" stroke="#000000" d="M344.8218,-133.2918C347.3918,-123.3518 352.1618,-104.8918 355.6718,-91.3148"/>
<polygon fill="#000000" stroke="#000000" points="359.134,-91.905 358.2418,-81.3478 352.3557,-90.1572 359.134,-91.905"/>
<text text-anchor="middle" x="358.0018" y="-104.1318" font-family="Times,serif" font-size="14.00" fill="#000000">1</text>
</g>
<!-- &#45;101 -->
<g id="node38" class="node">
<title>&#45;101</title>
<ellipse fill="none" stroke="#000000" cx="462.0018" cy="-74.5568" rx="7" ry="7"/>
</g>
<!-- &#45;100&#45;&gt;&#45;101 -->
<g id="edge37" class="edge">
<title>&#45;100&#45;&gt;&#45;101</title>
<path fill="none" stroke="#000000" d="M474.7618,-134.5018C471.4718,-129.6418 467.1218,-122.3818 465.0018,-115.3318 462.7518,-107.8418 461.8818,-99.2368 461.6218,-91.8708"/>
<polygon fill="#000000" stroke="#000000" points="465.1215,-91.6439 461.6018,-81.6508 458.1215,-91.6577 465.1215,-91.6439"/>
<text text-anchor="middle" x="469.0018" y="-104.1318" font-family="Times,serif" font-size="14.00" fill="#000000">0</text>
</g>
<!-- &#45;104 -->
<g id="node39" class="node">
<title>&#45;104</title>
<ellipse fill="none" stroke="#000000" cx="496.0018" cy="-74.5568" rx="7" ry="7"/>
</g>
<!-- &#45;100&#45;&gt;&#45;104 -->
<g id="edge38" class="edge">
<title>&#45;100&#45;&gt;&#45;104</title>
<path fill="none" stroke="#000000" d="M480.8218,-133.2918C483.3918,-123.3518 488.1618,-104.8918 491.6718,-91.3148"/>
<polygon fill="#000000" stroke="#000000" points="495.134,-91.905 494.2418,-81.3478 488.3557,-90.1572 495.134,-91.905"/>
<text text-anchor="middle" x="494.0018" y="-104.1318" font-family="Times,serif" font-size="14.00" fill="#000000">1</text>
</g>
<!-- &#45;110 -->
<g id="node40" class="node">
<title>&#45;110</title>
<ellipse fill="none" stroke="#000000" cx="581.0018" cy="-74.5568" rx="7" ry="7"/>
</g>
<!-- &#45;109&#45;&gt;&#45;110 -->
<g id="edge39" class="edge">
<title>&#45;109&#45;&gt;&#45;110</title>
<path fill="none" stroke="#000000" d="M581.0018,-133.2918C581.0018,-123.5518 581.0018,-105.6418 581.0018,-92.1478"/>
<polygon fill="#000000" stroke="#000000" points="584.5019,-91.7448 581.0018,-81.7448 577.5019,-91.7448 584.5019,-91.7448"/>
<text text-anchor="middle" x="585.0018" y="-104.1318" font-family="Times,serif" font-size="14.00" fill="#000000">0</text>
</g>
<!-- &#45;113 -->
<g id="node41" class="node">
<title>&#45;113</title>
<ellipse fill="none" stroke="#000000" cx="632.0018" cy="-74.5568" rx="7" ry="7"/>
</g>
<!-- &#45;109&#45;&gt;&#45;113 -->
<g id="edge40" class="edge">
<title>&#45;109&#45;&gt;&#45;113</title>
<path fill="none" stroke="#000000" d="M585.3518,-134.7218C593.2518,-124.5318 610.1818,-102.6918 621.3318,-88.3188"/>
<polygon fill="#000000" stroke="#000000" points="624.3027,-90.199 627.6618,-80.1508 618.7697,-85.9111 624.3027,-90.199"/>
<text text-anchor="middle" x="616.0018" y="-104.1318" font-family="Times,serif" font-size="14.00" fill="#000000">1</text>
</g>
<!-- 69 -->
<g id="node42" class="node">
<title>69</title>
<ellipse fill="none" stroke="#ff0000" cx="225.0018" cy="-8" rx="7" ry="8"/>
<text text-anchor="middle" x="225.0018" y="-5.5" font-family="Times,serif" font-size="10.00" fill="#000000">E</text>
</g>
<!-- &#45;74&#45;&gt;69 -->
<g id="edge41" class="edge">
<title>&#45;74&#45;&gt;69</title>
<path fill="none" stroke="#000000" d="M254.7118,-67.9318C249.6818,-57.7718 239.9018,-38.0458 232.9318,-24.0018"/>
<polygon fill="#000000" stroke="#000000" points="236.0465,-22.4045 228.4718,-14.9968 229.7737,-25.5113 236.0465,-22.4045"/>
<text text-anchor="middle" x="249.0018" y="-37.5778" font-family="Times,serif" font-size="14.00" fill="#000000">0</text>
</g>
<!-- 70 -->
<g id="node43" class="node">
<title>70</title>
<ellipse fill="none" stroke="#000000" cx="258.0018" cy="-8" rx="8" ry="8"/>
<text text-anchor="middle" x="258.0018" y="-5.5" font-family="Times,serif" font-size="10.00" fill="#000000">70</text>
</g>
<!-- &#45;74&#45;&gt;70 -->
<g id="edge42" class="edge">
<title>&#45;74&#45;&gt;70</title>
<path fill="none" stroke="#000000" d="M258.0018,-67.4338C258.0018,-57.6878 258.0018,-39.8558 258.0018,-26.2588"/>
<polygon fill="#000000" stroke="#000000" points="261.5019,-26.1028 258.0018,-16.1028 254.5019,-26.1028 261.5019,-26.1028"/>
<text text-anchor="middle" x="262.0018" y="-37.5778" font-family="Times,serif" font-size="14.00" fill="#000000">1</text>
</g>
<!-- 75 -->
<g id="node44" class="node">
<title>75</title>
<ellipse fill="none" stroke="#000000" cx="292.0018" cy="-8" rx="8" ry="8"/>
<text text-anchor="middle" x="292.0018" y="-5.5" font-family="Times,serif" font-size="10.00" fill="#000000">75</text>
</g>
<!-- &#45;85&#45;&gt;75 -->
<g id="edge43" class="edge">
<title>&#45;85&#45;&gt;75</title>
<path fill="none" stroke="#000000" d="M322.6118,-67.9318C317.4218,-57.7718 307.3518,-38.0458 300.1718,-24.0018"/>
<polygon fill="#000000" stroke="#000000" points="303.2378,-22.31 295.5718,-14.9968 297.0041,-25.4944 303.2378,-22.31"/>
<text text-anchor="middle" x="317.0018" y="-37.5778" font-family="Times,serif" font-size="14.00" fill="#000000">0</text>
</g>
<!-- 77 -->
<g id="node45" class="node">
<title>77</title>
<ellipse fill="none" stroke="#000000" cx="326.0018" cy="-8" rx="8" ry="8"/>
<text text-anchor="middle" x="326.0018" y="-5.5" font-family="Times,serif" font-size="10.00" fill="#000000">77</text>
</g>
<!-- &#45;85&#45;&gt;77 -->
<g id="edge44" class="edge">
<title>&#45;85&#45;&gt;77</title>
<path fill="none" stroke="#000000" d="M326.0018,-67.4338C326.0018,-57.6878 326.0018,-39.8558 326.0018,-26.2588"/>
<polygon fill="#000000" stroke="#000000" points="329.5019,-26.1028 326.0018,-16.1028 322.5019,-26.1028 329.5019,-26.1028"/>
<text text-anchor="middle" x="330.0018" y="-37.5778" font-family="Times,serif" font-size="14.00" fill="#000000">1</text>
</g>
<!-- 80 -->
<g id="node46" class="node">
<title>80</title>
<ellipse fill="none" stroke="#000000" cx="360.0018" cy="-8" rx="8" ry="8"/>
<text text-anchor="middle" x="360.0018" y="-5.5" font-family="Times,serif" font-size="10.00" fill="#000000">80</text>
</g>
<!-- &#45;91&#45;&gt;80 -->
<g id="edge45" class="edge">
<title>&#45;91&#45;&gt;80</title>
<path fill="none" stroke="#000000" d="M360.0018,-67.4338C360.0018,-57.6878 360.0018,-39.8558 360.0018,-26.2588"/>
<polygon fill="#000000" stroke="#000000" points="363.5019,-26.1028 360.0018,-16.1028 356.5019,-26.1028 363.5019,-26.1028"/>
<text text-anchor="middle" x="364.0018" y="-37.5778" font-family="Times,serif" font-size="14.00" fill="#000000">0</text>
</g>
<!-- 82 -->
<g id="node47" class="node">
<title>82</title>
<ellipse fill="none" stroke="#000000" cx="394.0018" cy="-8" rx="8" ry="8"/>
<text text-anchor="middle" x="394.0018" y="-5.5" font-family="Times,serif" font-size="10.00" fill="#000000">82</text>
</g>
<!-- &#45;91&#45;&gt;82 -->
<g id="edge46" class="edge">
<title>&#45;91&#45;&gt;82</title>
<path fill="none" stroke="#000000" d="M363.3818,-67.9318C368.5718,-57.7718 378.6518,-38.0458 385.8218,-24.0018"/>
<polygon fill="#000000" stroke="#000000" points="388.9895,-25.4944 390.4218,-14.9968 382.7558,-22.31 388.9895,-25.4944"/>
<text text-anchor="middle" x="385.0018" y="-37.5778" font-family="Times,serif" font-size="14.00" fill="#000000">1</text>
</g>
<!-- 85 -->
<g id="node48" class="node">
<title>85</title>
<ellipse fill="none" stroke="#000000" cx="428.0018" cy="-8" rx="8" ry="8"/>
<text text-anchor="middle" x="428.0018" y="-5.5" font-family="Times,serif" font-size="10.00" fill="#000000">85</text>
</g>
<!-- &#45;101&#45;&gt;85 -->
<g id="edge47" class="edge">
<title>&#45;101&#45;&gt;85</title>
<path fill="none" stroke="#000000" d="M458.6118,-67.9318C453.4218,-57.7718 443.3518,-38.0458 436.1718,-24.0018"/>
<polygon fill="#000000" stroke="#000000" points="439.2378,-22.31 431.5718,-14.9968 433.0041,-25.4944 439.2378,-22.31"/>
<text text-anchor="middle" x="453.0018" y="-37.5778" font-family="Times,serif" font-size="14.00" fill="#000000">0</text>
</g>
<!-- 86 -->
<g id="node49" class="node">
<title>86</title>
<ellipse fill="none" stroke="#000000" cx="462.0018" cy="-8" rx="8" ry="8"/>
<text text-anchor="middle" x="462.0018" y="-5.5" font-family="Times,serif" font-size="10.00" fill="#000000">86</text>
</g>
<!-- &#45;101&#45;&gt;86 -->
<g id="edge48" class="edge">
<title>&#45;101&#45;&gt;86</title>
<path fill="none" stroke="#000000" d="M462.0018,-67.4338C462.0018,-57.6878 462.0018,-39.8558 462.0018,-26.2588"/>
<polygon fill="#000000" stroke="#000000" points="465.5019,-26.1028 462.0018,-16.1028 458.5019,-26.1028 465.5019,-26.1028"/>
<text text-anchor="middle" x="466.0018" y="-37.5778" font-family="Times,serif" font-size="14.00" fill="#000000">1</text>
</g>
<!-- 87 -->
<g id="node50" class="node">
<title>87</title>
<ellipse fill="none" stroke="#000000" cx="496.0018" cy="-8" rx="8" ry="8"/>
<text text-anchor="middle" x="496.0018" y="-5.5" font-family="Times,serif" font-size="10.00" fill="#000000">87</text>
</g>
<!-- &#45;104&#45;&gt;87 -->
<g id="edge49" class="edge">
<title>&#45;104&#45;&gt;87</title>
<path fill="none" stroke="#000000" d="M496.0018,-67.4338C496.0018,-57.6878 496.0018,-39.8558 496.0018,-26.2588"/>
<polygon fill="#000000" stroke="#000000" points="499.5019,-26.1028 496.0018,-16.1028 492.5019,-26.1028 499.5019,-26.1028"/>
<text text-anchor="middle" x="500.0018" y="-37.5778" font-family="Times,serif" font-size="14.00" fill="#000000">0</text>
</g>
<!-- 89 -->
<g id="node51" class="node">
<title>89</title>
<ellipse fill="none" stroke="#000000" cx="530.0018" cy="-8" rx="8" ry="8"/>
<text text-anchor="middle" x="530.0018" y="-5.5" font-family="Times,serif" font-size="10.00" fill="#000000">89</text>
</g>
<!-- &#45;104&#45;&gt;89 -->
<g id="edge50" class="edge">
<title>&#45;104&#45;&gt;89</title>
<path fill="none" stroke="#000000" d="M499.3818,-67.9318C504.5718,-57.7718 514.6518,-38.0458 521.8218,-24.0018"/>
<polygon fill="#000000" stroke="#000000" points="524.9895,-25.4944 526.4218,-14.9968 518.7558,-22.31 524.9895,-25.4944"/>
<text text-anchor="middle" x="521.0018" y="-37.5778" font-family="Times,serif" font-size="14.00" fill="#000000">1</text>
</g>
<!-- 91 -->
<g id="node52" class="node">
<title>91</title>
<ellipse fill="none" stroke="#000000" cx="564.0018" cy="-8" rx="8" ry="8"/>
<text text-anchor="middle" x="564.0018" y="-5.5" font-family="Times,serif" font-size="10.00" fill="#000000">91</text>
</g>
<!-- &#45;110&#45;&gt;91 -->
<g id="edge51" class="edge">
<title>&#45;110&#45;&gt;91</title>
<path fill="none" stroke="#000000" d="M577.1118,-68.4678C574.0918,-63.4048 570.0718,-55.9028 568.0018,-48.7778 565.8918,-41.5148 564.8418,-33.2518 564.3418,-26.0718"/>
<polygon fill="#000000" stroke="#000000" points="567.8347,-25.8256 563.9218,-15.9798 560.8407,-26.1167 567.8347,-25.8256"/>
<text text-anchor="middle" x="572.0018" y="-37.5778" font-family="Times,serif" font-size="14.00" fill="#000000">0</text>
</g>
<!-- 92 -->
<g id="node53" class="node">
<title>92</title>
<ellipse fill="none" stroke="#000000" cx="598.0018" cy="-8" rx="8" ry="8"/>
<text text-anchor="middle" x="598.0018" y="-5.5" font-family="Times,serif" font-size="10.00" fill="#000000">92</text>
</g>
<!-- &#45;110&#45;&gt;92 -->
<g id="edge52" class="edge">
<title>&#45;110&#45;&gt;92</title>
<path fill="none" stroke="#000000" d="M582.8218,-67.4338C585.3618,-57.4848 590.0518,-39.1088 593.5518,-25.4138"/>
<polygon fill="#000000" stroke="#000000" points="596.9533,-26.2394 596.0418,-15.6838 590.1718,-24.5039 596.9533,-26.2394"/>
<text text-anchor="middle" x="596.0018" y="-37.5778" font-family="Times,serif" font-size="14.00" fill="#000000">1</text>
</g>
<!-- 93 -->
<g id="node54" class="node">
<title>93</title>
<ellipse fill="none" stroke="#000000" cx="632.0018" cy="-8" rx="8" ry="8"/>
<text text-anchor="middle" x="632.0018" y="-5.5" font-family="Times,serif" font-size="10.00" fill="#000000">93</text>
</g>
<!-- &#45;113&#45;&gt;93 -->
<g id="edge53" class="edge">
<title>&#45;113&#45;&gt;93</title>
<path fill="none" stroke="#000000" d="M632.0018,-67.4338C632.0018,-57.6878 632.0018,-39.8558 632.0018,-26.2588"/>
<polygon fill="#000000" stroke="#000000" points="635.5019,-26.1028 632.0018,-16.1028 628.5019,-26.1028 635.5019,-26.1028"/>
<text text-anchor="middle" x="636.0018" y="-37.5778" font-family="Times,serif" font-size="14.00" fill="#000000">0</text>
</g>
<!-- 94 -->
<g id="node55" class="node">
<title>94</title>
<ellipse fill="none" stroke="#000000" cx="666.0018" cy="-8" rx="8" ry="8"/>
<text text-anchor="middle" x="666.0018" y="-5.5" font-family="Times,serif" font-size="10.00" fill="#000000">94</text>
</g>
<!-- &#45;113&#45;&gt;94 -->
<g id="edge54" class="edge">
<title>&#45;113&#45;&gt;94</title>
<path fill="none" stroke="#000000" d="M635.3818,-67.9318C640.5718,-57.7718 650.6518,-38.0458 657.8218,-24.0018"/>
<polygon fill="#000000" stroke="#000000" points="660.9895,-25.4944 662.4218,-14.9968 654.7558,-22.31 660.9895,-25.4944"/>
<text text-anchor="middle" x="656.0018" y="-37.5778" font-family="Times,serif" font-size="14.00" fill="#000000">1</text>
</g>
</g>
</svg>
